<?xml version="1.0" standalone="no"?>
<!DOCTYPE svg PUBLIC "-//W3C//DTD SVG 20010904//EN"
 "http://www.w3.org/TR/2001/REC-SVG-20010904/DTD/svg10.dtd">
<svg version="1.0" xmlns="http://www.w3.org/2000/svg"
 width="517.000000pt" height="517.000000pt" viewBox="0 0 517.000000 517.000000"
 preserveAspectRatio="xMidYMid meet">
<metadata>
Created by potrace 1.14, written by Peter Selinger 2001-2017
</metadata>
<g transform="translate(0.000000,517.000000) scale(0.100000,-0.100000)"
fill="#000000" stroke="none">
<path d="M3407 4744 c-3 -5 -3 -56 -1 -114 6 -145 1 -565 -7 -565 -1 0 -3 -38
-5 -85 -4 -82 -8 -147 -17 -295 -6 -85 -23 -235 -42 -370 -8 -55 -17 -118 -20
-140 -2 -22 -7 -51 -10 -65 -3 -14 -7 -41 -10 -60 -3 -19 -8 -46 -11 -60 -3
-14 -6 -32 -6 -40 0 -8 -9 -49 -19 -91 -10 -42 -20 -85 -22 -95 -1 -10 -5 -23
-9 -29 -3 -5 -9 -26 -14 -45 -4 -19 -9 -39 -10 -45 -2 -5 -6 -23 -9 -40 -3
-16 -10 -32 -16 -33 -5 -2 -7 -8 -3 -13 3 -5 -10 -54 -30 -108 -19 -54 -32
-102 -29 -105 4 -3 1 -6 -5 -6 -7 0 -11 -3 -11 -7 1 -5 1 -10 -1 -13 -1 -3 -3
-15 -6 -27 -2 -12 -15 -46 -28 -75 -28 -63 -55 -125 -57 -136 0 -4 -6 -16 -12
-27 -6 -11 -12 -22 -12 -25 -3 -16 -72 -146 -80 -152 -5 -4 -6 -8 -2 -8 15 0
-129 -232 -178 -284 -14 -15 -25 -29 -25 -32 0 -3 -7 -12 -15 -20 -8 -9 -15
-13 -15 -11 0 3 -14 -8 -31 -24 -45 -42 -97 -56 -137 -35 -18 9 -32 23 -32 31
0 8 -4 15 -10 15 -5 0 -10 8 -10 18 0 10 -4 22 -9 28 -5 5 -12 23 -15 39 -3
17 -14 80 -25 140 -26 139 -38 272 -37 403 1 56 -1 102 -4 102 -3 0 -5 237 -3
528 3 838 3 901 -3 1012 -3 58 -6 129 -7 158 -1 28 -4 52 -7 52 -3 0 -5 12 -6
28 -3 74 -38 212 -72 279 -37 71 -92 100 -143 73 -36 -20 -139 -135 -139 -157
0 -6 -4 -13 -8 -15 -7 -3 -112 -211 -112 -223 0 -2 -5 -16 -12 -32 -6 -15 -12
-32 -14 -38 -1 -5 -16 -43 -33 -84 -17 -41 -33 -85 -36 -98 -2 -14 -8 -30 -14
-36 -5 -7 -10 -15 -10 -19 -1 -5 -1 -9 -2 -10 0 -2 -2 -11 -4 -20 -2 -10 -14
-52 -28 -95 -23 -71 -37 -122 -42 -148 -7 -39 -19 -76 -26 -81 -5 -3 -7 -9 -4
-13 2 -5 -7 -50 -21 -102 -14 -52 -27 -103 -28 -114 -1 -12 -6 -27 -10 -34 -4
-7 -5 -15 -2 -18 3 -3 1 -11 -4 -18 -5 -6 -12 -29 -14 -51 -3 -21 -7 -50 -11
-64 -3 -14 -8 -36 -10 -50 -2 -14 -13 -72 -24 -130 -11 -58 -23 -130 -27 -160
-4 -30 -8 -66 -11 -80 -2 -14 -6 -47 -8 -75 -3 -27 -8 -72 -10 -100 -5 -42 -9
-232 -6 -257 1 -5 5 -8 10 -8 4 0 9 42 9 92 1 87 7 173 12 173 1 0 3 14 5 30
1 17 4 32 5 35 1 3 2 9 1 14 -1 7 45 249 65 341 3 11 7 31 9 45 2 14 7 36 10
50 7 27 12 51 18 90 3 14 15 66 27 115 12 50 23 98 26 108 2 9 7 27 10 40 3
12 7 29 9 37 2 8 4 15 5 15 1 0 3 9 5 20 5 30 11 53 46 182 17 65 32 124 32
131 0 6 4 12 8 12 5 0 6 7 3 15 -4 8 -1 15 4 15 6 0 10 8 10 18 -2 19 30 121
43 137 4 6 10 22 13 35 2 14 12 43 22 65 10 22 19 45 20 50 12 52 151 323 180
353 8 7 14 17 14 22 0 12 71 54 98 58 30 4 67 -35 82 -84 38 -132 42 -231 45
-1059 2 -445 6 -846 10 -890 8 -117 16 -252 18 -312 1 -29 5 -53 8 -53 3 0 6
-15 7 -33 5 -157 68 -388 124 -458 19 -23 52 -38 74 -34 10 2 26 4 35 4 19 1
106 59 141 94 13 13 41 47 62 76 21 28 42 51 47 51 5 0 9 4 9 10 0 5 20 39 45
76 25 36 45 72 45 79 0 8 8 19 18 24 9 6 14 11 10 11 -5 0 7 30 26 68 18 37
42 85 51 107 10 22 26 58 36 80 35 79 58 143 52 149 -4 3 0 6 7 6 7 0 11 3 7
6 -3 3 12 56 34 118 22 61 40 121 41 134 2 12 5 22 9 22 3 0 6 6 7 13 2 30 13
80 40 187 17 63 32 131 36 150 15 90 23 135 26 135 1 0 3 14 5 30 2 17 17 106
33 199 16 93 29 182 28 198 -1 15 1 28 4 28 4 0 6 16 5 36 -1 19 2 37 6 39 4
3 5 21 3 40 -1 19 1 37 5 39 4 3 7 22 5 43 -1 21 0 42 4 47 3 5 6 43 7 83 2
41 6 107 9 146 14 163 16 394 6 580 -9 182 -18 244 -33 221z"/>
</g>
</svg>
